<?xml version="1.0" encoding="UTF-8" standalone="no"?>
<!DOCTYPE svg PUBLIC "-//W3C//DTD SVG 1.1//EN" "http://www.w3.org/Graphics/SVG/1.1/DTD/svg11.dtd">
<svg width="100%" height="100%" viewBox="0 0 1024 1024" version="1.1" xmlns="http://www.w3.org/2000/svg" xmlns:xlink="http://www.w3.org/1999/xlink" xml:space="preserve" xmlns:serif="http://www.serif.com/" style="fill-rule:evenodd;clip-rule:evenodd;stroke-linejoin:round;stroke-miterlimit:2;">
    <g>
        <path id="svg_24" d="M708.607,295.004C796.693,347.651 853.995,432.985 853.995,529.225C853.995,688.996 696.068,818.71 501.546,818.71C307.025,818.71 149.098,688.996 149.098,529.225C149.098,421.665 220.672,327.727 326.802,277.818C349.472,215.856 425.324,170.263 515.297,170.263C613.404,170.263 694.721,224.472 708.607,295.004ZM537.008,328.033C537.008,330.927 537.008,330.927 539.615,333.67C548.376,342.057 554.162,351.689 559.624,362.409C563.602,370.512 567.503,381.587 577.717,381.587C585.347,378.933 587.519,374.844 587.668,367.113C580.145,347.553 556.101,333.809 537.008,328.033ZM490.69,346.849C481.355,356.184 471.716,363.211 459.842,368.922C453.071,372.083 446.897,374.917 441.478,380.14C440.36,386.403 440.39,388.992 444.554,393.89C454.364,399.009 461.772,392.565 468.979,385.93C475.277,379.362 495.315,356.098 490.69,346.849ZM347.378,463.65C323.365,463.486 294.293,470.744 277.676,489.308L275.024,493.039C248.208,527.607 244.504,571.534 249.615,613.984L250.418,618.965C255.295,652.582 271.101,684.162 300.976,701.887L305.42,704.364C342.089,725.234 385.775,733.288 427.411,737.123L434.241,737.654C507.506,744.092 586.288,744.35 657.721,724.741L662.934,723.18C667.262,721.929 671.575,720.648 675.871,719.29C735.798,699.392 763.583,651.502 763.33,589.802C763.293,586.363 763.259,582.926 763.264,579.486C763.311,562.278 762.373,545.859 757.011,529.373L755.932,526.24C743.064,488.371 711.443,464.13 670.744,463.672L666.7,463.684C651.044,463.718 635.695,465.158 620.164,467.033C611.692,468.081 603.216,469.087 594.736,470.062L589.59,470.649C568.792,473.027 548.036,474.708 527.111,475.513L522.534,475.67C514.246,475.976 506.003,476.072 497.713,475.816L493.585,475.67C461.408,474.634 429.623,471.569 397.68,467.638C382.307,465.737 367.01,463.895 351.505,463.667L347.378,463.65ZM666.728,557.936C680.112,578.94 685.895,609.115 673.066,631.992L671.104,635.52C661.79,650.702 648.099,660.934 629.643,658.046C603.413,649.354 595.73,622.994 595.823,597.69C596.561,562.739 636.02,518.216 666.728,557.936ZM403.087,560.695C419.06,583.528 418.37,617.3 403.466,640.304C392.703,654.283 378.569,662.38 360.874,656.825C331.339,643.498 329.48,611.201 331.473,582.78C337.169,544.132 377.936,531.019 403.087,560.695ZM568.852,245.529C553.878,230.556 536.22,256.418 528.801,268.25L526.967,271.221C523.679,276.477 520.437,279.766 522.534,286.057C531.733,275.994 541.776,270.255 553.834,264.165C558.001,262.191 562.073,260.175 566.082,257.899C570.694,254.172 570.224,250.979 568.852,245.529ZM447.2,257.182C441.906,251.624 434.595,252.775 429.899,258.556C427.574,279.146 427.574,279.146 473.321,303.426C473.321,299.084 473.321,299.084 471.195,296.308C464.577,288.913 459.841,281.473 455.59,272.578C453.054,267.143 450.62,262.11 447.2,257.182ZM506.612,358.428C502.264,382.343 495.772,404.01 480.739,423.382C476.489,428.528 473.489,432.283 472.677,439.134C473.69,446.509 476.837,449.57 483.453,452.511C495.46,452.511 500.464,445.906 504.916,435.325L506.16,432.157C509.03,424.958 511.594,417.905 513.035,410.264C514.441,398.795 518.474,364.359 506.612,358.428ZM535.47,195.774C524.638,189.782 517.311,194.049 511.446,203.995C503.192,220.6 492.929,257.9 508.06,273.03C512.359,253.556 517.305,234.937 530.331,219.312C532.367,216.931 534.291,214.455 536.194,211.967C539.746,205.573 540.402,201.453 535.47,195.774ZM612.274,271.583C601.15,258.177 586.526,265.373 573.589,272.056L570.028,273.935C559.313,279.568 549.36,285.686 539.903,293.294C544.245,294.742 544.245,294.742 548.045,293.667C561.044,289.304 572.84,288.429 586.492,288.228L591.731,288.235L596.686,288.183C601.137,288.203 601.137,288.203 605.037,287.505C610.881,282.875 612.539,279.116 612.274,271.583ZM474.769,336.717C470.426,335.27 470.426,335.27 466.355,336.483C453.654,341.113 441.059,342.956 427.592,343.262C424.128,343.302 420.664,343.347 417.2,343.397L412.156,343.508C403.553,343.61 400.667,344.519 396.608,352.639C395.676,359.937 396.886,363.614 402.397,368.56C421.258,373.898 421.258,373.898 474.769,336.717ZM480.558,220.923C474.13,214.77 467.36,213.637 460.114,218.752C450.373,231.739 450.373,231.739 471.413,264.078L473.321,266.969C477.594,273.497 482.081,279.252 487.796,284.61C487.089,281.58 486.391,278.547 485.732,275.507L484.901,271.583C483.339,264.503 482.15,257.509 481.833,250.251L481.706,245.851C481.617,242.819 481.536,239.787 481.463,236.754L481.435,232.261L481.339,228.019C481.303,224.196 481.303,224.196 480.558,220.923ZM525.429,348.297C525.872,350.716 526.367,353.127 526.876,355.534C531.07,370.423 533.121,383.912 533.39,399.409L533.384,404.196L533.435,408.71C533.402,415.316 534.567,418.067 539.903,422.115C546.994,422.652 551.963,423.44 556.82,417.863C562.888,403.703 562.888,403.703 543.67,372.464L541.35,368.741C536.628,361.141 532.111,354.365 525.429,348.297ZM389.998,286.532C382.946,282.683 378.103,283.075 372.092,288.319C368.429,294.423 367.26,299.734 370.554,306.321C394.274,327.253 434.237,328.08 463.189,319.348L463.189,316.453C440.177,313.25 419.493,307.173 400.317,293.747C396.923,291.249 393.53,288.833 389.998,286.532ZM639.775,326.585C617.735,300.977 576.818,304.263 547.14,310.663L547.14,313.558C570.456,317.192 591.929,323.332 610.646,337.984C617.909,344.104 622.762,346.419 632.538,345.402C640,341.671 640.858,334.163 639.775,326.585ZM131.729,520.54C132.055,527.23 132.289,533.916 132.444,540.612C132.509,542.881 132.597,545.15 132.711,547.417C133.565,564.863 130.239,573.993 118.702,587.122C115.17,592.379 112,597.827 108.841,603.315L106.245,607.819C80.147,653.751 62.109,701.952 61.89,755.295L61.8,760.726C61.57,815.438 95.385,859.537 146.836,876.607C149.023,877.151 151.226,877.637 153.44,878.055L156.855,878.756C166.489,879.855 169.068,875.707 173.975,868.494C186.707,851.674 211.07,850.325 230.267,854.393C240.37,858.094 250.213,864.721 256.207,873.713C269.243,872.002 281.851,866.919 294.293,862.766L297.816,861.594C314.733,855.941 331.162,849.799 347.193,841.931C350.418,840.359 353.667,838.849 356.928,837.352C367.308,832.568 377.465,827.658 387.211,821.65C395.164,818.359 404.12,820.454 412.388,821.741L418.819,822.73L425.466,823.776L432.231,824.822C437.727,825.673 443.221,826.531 448.715,827.395C444.839,831.541 441.197,834.452 436.208,837.142L432.274,839.28L428.089,841.507L423.744,843.845C412.955,849.621 402.105,855.244 391.094,860.586C387.526,862.327 383.974,864.1 380.42,865.87C297.078,907.003 297.078,907.003 264.892,907.003L264.711,912.431C261.921,936.698 244.063,952.015 221.469,957.663C194.833,959.904 173.567,950.778 162.125,925.82C160.858,919.849 160.858,919.849 160.677,915.688L157.273,915.309C129.963,911.757 103.86,899.724 82.516,882.397L79.107,879.655C14.157,824.767 16.291,730.143 44.855,657.318C55.302,631.73 67.792,607.598 82.516,584.227L84.378,581.243C122.532,520.54 122.532,520.54 131.729,520.54ZM878.601,519.093C950.774,589.687 1004.272,733.125 958.296,828.683C944.128,856.882 921.577,882.62 893.075,896.871C891.165,900.712 891.165,900.712 889.728,905.194C882.935,922.488 869.065,928.228 850.975,927.793C843.494,926.861 837.661,923.96 832.283,918.583C827.698,918.381 823.239,918.354 818.657,918.453L810.117,918.551L805.594,918.615C767.997,919.091 733.812,916.421 697.673,905.556L693.422,904.284C663.347,895.121 634.613,882.598 606.736,868.102C603.085,866.214 599.416,864.364 595.748,862.512C577.433,853.192 559.962,843.033 542.798,831.737C545.918,825.498 558.122,827.105 564.509,826.762C574.035,826.176 583.389,825.052 592.825,823.635C603.353,822.403 608.905,822.935 618.064,828.571C640.904,842.109 665.234,852.947 690.045,862.334C693.081,863.486 696.104,864.674 699.126,865.865C712.257,870.82 725.572,874.366 739.196,877.693L744.456,878.982C763.774,883.554 782.597,885.712 802.43,886.197L808.22,886.366C812.863,886.501 817.507,886.625 822.151,886.739L822.745,882.714C825.395,868.254 836.98,859.84 851.1,857.791C860.68,857.163 870.039,857.914 877.154,865.028C887.285,862.495 894.749,855.209 901.76,847.659L904.044,845.346C917.24,831.348 925.331,813.843 930.708,795.552L932.111,790.927C949.794,720.356 915.708,637.716 877.154,579.885C877.005,575.26 877.023,570.778 877.187,566.163L877.297,562.092C877.416,557.8 877.556,553.509 877.696,549.217C877.781,546.308 877.864,543.4 877.945,540.491C878.148,533.357 878.37,526.225 878.601,519.093ZM356.08,113.813L364.911,116.567C399.107,127.411 435.631,140.858 466.084,160.131C462.498,163.717 460.339,163.875 455.398,164.841L450.637,165.782L445.639,166.735L440.743,167.705C437.578,168.322 434.409,168.915 431.235,169.482C427.859,170.105 424.51,170.87 421.174,171.682C412.25,171.726 405.391,167.87 397.422,164.111C381.822,157.089 366.155,151.015 349.928,145.657L344.096,143.71C325.253,137.563 306.083,132.898 286.694,128.83L282.614,127.937C262.461,123.697 242.336,121.981 221.781,122.041C218.479,122.046 215.179,122.011 211.877,121.975C161.625,121.755 116.733,142.372 96.99,190.527C94.661,198.175 92.785,205.851 91.201,213.686L90.347,217.649C88.651,231.131 89.456,244.999 89.753,258.556L89.834,262.884C89.939,266.728 90.141,270.551 90.386,274.387L90.473,277.86C91.078,284.972 91.861,285.811 98.833,287.991L102.382,288.478C119.006,290.871 130.842,307.011 134.623,322.243C136.407,336.897 134.091,350.683 124.763,362.409C118.533,371.665 124.406,381.357 128.653,390.543L130.36,394.312C135.362,405.138 141.053,415.542 147.118,425.808L149.109,429.262L150.902,432.287C153.028,437.854 150.292,441.308 147.198,445.907C140.115,456.859 137.581,470.337 134.623,482.907C128.614,476.122 124.594,468.408 120.33,460.472L117.877,455.923C111.325,443.644 105.131,431.205 99.071,418.678L96.513,413.394C83.963,387.174 83.963,387.174 83.963,381.587L78.445,381.406C57.863,379.069 43.935,363.321 39.093,343.954C37.196,325.319 41.651,309.755 56.462,297.637L59.357,297.637L58.775,294.397L58,289.947L57.237,285.622C47.289,216.855 63.51,143.557 128.834,108.024C200.015,73.642 284.016,90.668 356.08,113.813ZM828.031,100.244L832.014,100.249C890.991,100.462 945.87,121.116 967.256,181.13C972.35,197.873 974.834,214.239 973.385,231.711C974.523,237.331 977.557,236.984 982.816,238.292C1004.91,251.045 1012.357,274.363 1008.185,298.739C1002.884,318.959 987.903,337.944 966.125,340.404C957.787,342.211 956.514,347.81 954.5,355.443C953.678,358.114 952.849,360.783 952.013,363.449L950.769,367.543C936.547,412.276 911.568,455.458 886.109,494.673C884.635,496.996 883.259,499.38 881.903,501.775C880.048,504.619 880.048,504.619 877.154,504.619L876.801,501.746C876.262,497.396 875.713,493.046 875.163,488.697L874.609,484.179C873.772,477.607 872.891,471.175 871.217,464.758C868.938,455.978 870.635,450.443 875.293,442.933C887.506,422.947 898.12,402.443 907.459,380.954L909.789,375.61C923.515,349.499 923.515,349.499 916.505,324.776C900.937,308.064 898.155,282.947 908.997,262.898L910.586,259.8C917.765,247.047 929.233,237.582 943.735,235.397C939.335,183.004 921.779,144.338 866.829,130.64C827.551,122.078 786.687,127.145 748.467,138.536C743.093,140.134 737.664,141.474 732.23,142.852C699.75,151.675 669.253,166.442 639.301,181.518C632.026,184.851 628.771,184.82 621.683,181.571C613.947,178.141 606.192,175.445 598.094,173.005C594.905,171.71 594.905,171.71 594.905,168.816C597.732,167.007 597.732,167.007 601.679,164.988L606.032,162.74L610.646,160.402L615.09,158.115C619.451,155.876 623.823,153.661 628.196,151.446L632.014,149.477C639.093,145.857 646.217,142.671 653.628,139.791C656.966,138.489 660.267,137.123 663.568,135.728C700.606,120.281 739.189,110.187 778.728,103.681L783.202,102.888C798.15,100.443 812.925,100.207 828.031,100.244Z"/>
    </g>
</svg>
