<svg version="1.1" xmlns="http://www.w3.org/2000/svg" style="display: block;" viewBox="0 0 2048 2048" width="512" height="512" preserveAspectRatio="none">
<defs>
	<linearGradient id="Gradient1" gradientUnits="userSpaceOnUse" x1="1837.8" y1="753.039" x2="949.228" y2="841.462">
		<stop class="stop0" offset="0" stop-opacity="1" stop-color="rgb(123,184,193)"/>
		<stop class="stop1" offset="1" stop-opacity="1" stop-color="rgb(175,228,235)"/>
	</linearGradient>
</defs>
<path transform="translate(0,0)" fill="url(#Gradient1)" d="M 1013.69 24.6094 C 1046.19 21.7158 1082.71 26.0244 1115.23 28.9336 C 1169.46 33.7843 1219.4 43.6061 1271.43 59.2592 C 1376.64 90.1483 1474.33 142.452 1558.37 212.887 C 1563.21 216.98 1576.78 230.501 1580.66 232.97 L 1580.92 232.616 C 1593.12 215.888 1614.62 206.124 1635.27 208.761 C 1648.14 220.133 1664.76 217.456 1676.25 236.16 C 1679.37 241.228 1691.36 266.931 1691.86 267.119 L 1692.14 266.81 C 1693.58 270.815 1693.22 277.619 1693.17 281.97 C 1693 298.447 1684.5 318.341 1670.23 327.511 C 1678.34 339.977 1689.58 350.858 1698.19 363.12 C 1763.6 456.291 1809.11 562.718 1829.47 674.879 C 1833.74 699.759 1837.14 724.781 1839.67 749.898 C 1840.67 760.543 1840.43 777.822 1842.49 787.21 C 1892.29 802.102 1934.52 839.346 1958.96 884.847 C 1987.98 939.959 1994.11 1004.28 1976.04 1063.89 C 1957.29 1124.74 1905.1 1185.88 1841.47 1201.11 C 1838.18 1209.98 1837.78 1253.23 1835.82 1266.62 C 1830.93 1299.9 1827.54 1333.66 1819.31 1366.56 C 1802.76 1441.65 1776.08 1498.23 1704.28 1534.89 C 1661.77 1556.59 1615.84 1567.35 1569.4 1577.69 C 1535.69 1585.46 1501.68 1591.84 1467.45 1596.8 C 1449.3 1599.22 1431.14 1601.54 1412.96 1603.77 C 1402.79 1604.98 1387.79 1606.31 1377.92 1608.52 C 1300.19 1616.76 1222.16 1621.78 1144.02 1623.58 C 1107.05 1624.75 1062.64 1626.28 1025.51 1625.47 C 929.795 1625.22 833.57 1622.54 738.151 1614.34 C 726.239 1613.32 688.31 1610.45 677.769 1607.79 C 675.742 1606.85 613.876 1600.72 604.681 1599.28 C 519.792 1585.99 429.551 1570.98 351.09 1534.71 C 332.956 1526.32 308.714 1508.68 295.108 1494.75 C 239.345 1437.67 230.579 1353.05 219.906 1277.76 C 217.295 1259.34 212.689 1218.2 213.042 1200.27 C 203.3 1197.51 193.792 1193.99 184.605 1189.73 C 139.092 1168.52 100.305 1124.93 83.2559 1077.83 C 61.2916 1018.27 64.0521 952.406 90.923 894.893 C 117.483 838.247 155.642 807.131 213.047 786.469 C 212.47 766.82 215.95 735.053 218.558 715.053 C 231.966 608.322 267.481 505.56 322.834 413.326 C 334.325 394.374 348.328 375.954 361.29 357.997 C 368.212 348.408 378.037 338.211 383.674 328.013 C 365.549 311.472 358.548 284.106 365.089 260.612 C 366.082 260.536 365.361 260.65 367.034 259.61 C 370.535 249.094 376.108 239.386 383.423 231.06 C 396.684 215.69 404.593 212.914 424.821 211.387 C 425.858 209.041 425.515 210.294 424.314 206.832 C 444.215 208.4 462.64 216.143 476.152 231.328 C 487.72 220.147 499.912 209.628 512.667 199.823 C 558.854 164.791 607.892 134.246 659.388 107.509 C 674.988 99.5706 691.844 93.5886 707.886 86.8307 C 776.671 57.854 850.849 39.6397 924.994 31.4326 C 944.394 29.2853 995.324 22.0743 1013.69 24.6094 z"/>
<path transform="translate(0,0)" fill="rgb(184,226,232)" d="M 476.152 231.328 C 487.72 220.147 499.912 209.628 512.667 199.823 C 558.854 164.791 607.892 134.246 659.388 107.509 C 674.988 99.5706 691.844 93.5886 707.886 86.8307 C 776.671 57.854 850.849 39.6397 924.994 31.4326 C 944.394 29.2853 995.324 22.0743 1013.69 24.6094 C 1018.5 25.708 1021.44 25.5118 1026.32 25.5358 C 1027.2 42.7862 1026.73 60.6889 1027.08 78.028 C 1027.19 83.5272 1028.2 97.0881 1027.7 101.524 C 1051.91 139.142 1049.18 167.341 1026.2 204.598 C 1026.87 210.881 1026.75 216.649 1026.92 222.922 C 1028.12 265.506 1027.76 308.076 1027.73 350.676 L 1027.5 626.628 L 1027.54 1045.98 C 1028.01 1106.16 1027.73 1166.34 1026.69 1226.5 C 1026.36 1254.36 1026.7 1278.91 1025.4 1306.9 L 958.923 1306.88 C 946.218 1306.85 932.89 1306.24 920.3 1307.74 C 913.006 1308.6 910.26 1313.41 906.959 1319.34 C 906.207 1349.92 919.238 1380.42 940.115 1402.52 C 961.698 1425.55 991.526 1439.1 1023.07 1440.2 L 1026.53 1441.72 C 1030.07 1451.58 1026.62 1509.15 1027.59 1525.65 C 1029.45 1557.39 1025.55 1593.47 1025.51 1625.47 C 929.795 1625.22 833.57 1622.54 738.151 1614.34 C 726.239 1613.32 688.31 1610.45 677.769 1607.79 C 675.742 1606.85 613.876 1600.72 604.681 1599.28 C 519.792 1585.99 429.551 1570.98 351.09 1534.71 C 332.956 1526.32 308.714 1508.68 295.108 1494.75 C 239.345 1437.67 230.579 1353.05 219.906 1277.76 C 217.295 1259.34 212.689 1218.2 213.042 1200.27 C 203.3 1197.51 193.792 1193.99 184.605 1189.73 C 139.092 1168.52 100.305 1124.93 83.2559 1077.83 C 61.2916 1018.27 64.0521 952.406 90.923 894.893 C 117.483 838.247 155.642 807.131 213.047 786.469 C 212.47 766.82 215.95 735.053 218.558 715.053 C 231.966 608.322 267.481 505.56 322.834 413.326 C 334.325 394.374 348.328 375.954 361.29 357.997 C 368.212 348.408 378.037 338.211 383.674 328.013 C 365.549 311.472 358.548 284.106 365.089 260.612 C 366.082 260.536 365.361 260.65 367.034 259.61 C 370.535 249.094 376.108 239.386 383.423 231.06 C 396.684 215.69 404.593 212.914 424.821 211.387 C 425.858 209.041 425.515 210.294 424.314 206.832 C 444.215 208.4 462.64 216.143 476.152 231.328 z"/>
<path transform="translate(0,0)" fill="rgb(221,243,246)" d="M 1026.2 204.598 C 1022.39 207.016 1018.62 210.516 1014.57 213.178 C 983.795 233.418 947.515 228.365 911.766 234.139 C 820.765 248.837 725.145 289.855 658.345 354.573 C 640.59 371.887 625.099 391.379 612.242 412.585 C 602.823 428.37 596.107 443.387 583.828 457.608 C 532.105 517.508 422.771 495.19 419.802 408.847 C 418.458 369.755 438.404 344.685 464.031 316.573 C 495.917 281.596 531.077 249.995 568.682 221.208 C 681.49 139.112 819.178 83.647 958.866 73.9181 C 989.027 71.8174 1006.44 81.1542 1027.7 101.524 C 1051.91 139.142 1049.18 167.341 1026.2 204.598 z"/>
<path transform="translate(0,0)" fill="rgb(23,51,61)" d="M 213.042 1200.27 C 203.3 1197.51 193.792 1193.99 184.605 1189.73 C 139.092 1168.52 100.305 1124.93 83.2559 1077.83 C 61.2916 1018.27 64.0521 952.406 90.923 894.893 C 117.483 838.247 155.642 807.131 213.047 786.469 C 214.071 810.59 213.074 840.016 213.054 864.669 L 213.024 1017.15 L 213.113 1138.74 C 213.141 1156.67 214.134 1183.38 213.042 1200.27 z"/>
<path transform="translate(0,0)" fill="rgb(254,131,7)" d="M 424.314 206.832 C 444.215 208.4 462.64 216.143 476.152 231.328 C 445.675 260.353 410.828 295.669 383.674 328.013 C 365.549 311.472 358.548 284.106 365.089 260.612 C 366.082 260.536 365.361 260.65 367.034 259.61 C 370.535 249.094 376.108 239.386 383.423 231.06 C 396.684 215.69 404.593 212.914 424.821 211.387 C 425.858 209.041 425.515 210.294 424.314 206.832 z"/>
<path transform="translate(0,0)" fill="rgb(23,51,61)" d="M 553.063 832.421 L 554.915 832.324 C 639.934 828.683 707.16 908.743 706.925 990.409 C 706.724 1060.47 716.455 1134.24 663.588 1190.01 C 636.655 1218.43 600.562 1236.03 561.3 1237.31 C 476.378 1238.95 409.608 1166.08 408.149 1083.5 C 406.882 1011.85 397.508 940.923 448.795 883.128 C 475.31 852.881 512.899 834.6 553.063 832.421 z"/>
<path transform="translate(0,0)" fill="rgb(221,243,246)" d="M 487.982 922.728 C 503.316 920.099 518.88 925.915 528.733 937.955 C 538.586 949.995 541.208 966.401 535.599 980.913 C 529.989 995.424 517.013 1005.8 501.624 1008.08 C 478.199 1011.56 456.342 995.533 452.605 972.15 C 448.867 948.766 464.642 926.729 487.982 922.728 z"/>
<path transform="translate(0,0)" fill="rgb(23,51,61)" d="M 1842.49 787.21 C 1892.29 802.102 1934.52 839.346 1958.96 884.847 C 1987.98 939.959 1994.11 1004.28 1976.04 1063.89 C 1957.29 1124.74 1905.1 1185.88 1841.47 1201.11 C 1840.91 1195.83 1842.08 1166.94 1842.13 1159.58 L 1842.21 1065.73 L 1842.19 885.288 C 1842.18 853.968 1841.27 818.188 1842.49 787.21 z"/>
<path transform="translate(0,0)" fill="rgb(23,51,61)" d="M 1025.4 1306.9 L 1095.41 1306.76 C 1108.18 1306.75 1121.3 1306.19 1133.97 1307.64 C 1142.77 1308.65 1145.35 1314.22 1148.85 1321.34 C 1145.36 1390.43 1092.21 1440.62 1023.07 1440.2 C 991.526 1439.1 961.698 1425.55 940.115 1402.52 C 919.238 1380.42 906.207 1349.92 906.959 1319.34 C 910.26 1313.41 913.006 1308.6 920.3 1307.74 C 932.89 1306.24 946.218 1306.85 958.923 1306.88 L 1025.4 1306.9 z"/>
<path transform="translate(0,0)" fill="rgb(254,131,7)" d="M 1580.66 232.97 L 1580.92 232.616 C 1593.12 215.888 1614.62 206.124 1635.27 208.761 C 1648.14 220.133 1664.76 217.456 1676.25 236.16 C 1679.37 241.228 1691.36 266.931 1691.86 267.119 L 1692.14 266.81 C 1693.58 270.815 1693.22 277.619 1693.17 281.97 C 1693 298.447 1684.5 318.341 1670.23 327.511 C 1639.96 288.449 1614.09 266.857 1580.66 232.97 z"/>
<path transform="translate(0,0)" fill="rgb(23,51,61)" d="M 1483.54 833.355 C 1521.22 829.922 1551.14 837.768 1582.16 860.127 C 1615.02 883.808 1639.06 925.057 1644.81 964.953 C 1647.84 985.972 1646.8 1009.48 1647.07 1030.63 C 1647.74 1084.1 1648.11 1135.22 1613.15 1179.58 C 1586.31 1213.64 1552.88 1231.05 1510.37 1236.62 C 1476.27 1240.65 1437.42 1226.86 1410.55 1206.37 C 1375.75 1180.1 1354.59 1138.48 1349.54 1095.5 C 1345.88 1064.37 1347.48 1031.84 1347.48 1000.45 C 1347.48 961.127 1357.66 923.75 1381.96 892.291 C 1407.61 859.076 1441.97 838.898 1483.54 833.355 z"/>
<path transform="translate(0,0)" fill="rgb(221,243,246)" d="M 1423.85 922.558 C 1439.22 919.751 1454.93 925.423 1464.96 937.411 C 1474.99 949.399 1477.81 965.854 1472.34 980.497 C 1466.87 995.141 1453.95 1005.72 1438.51 1008.19 C 1415.01 1011.95 1392.85 996.091 1388.83 972.626 C 1384.81 949.162 1400.43 926.834 1423.85 922.558 z"/>
<path transform="translate(0,0)" fill="rgb(49,81,96)" d="M 677.769 1607.79 C 688.31 1610.45 726.239 1613.32 738.151 1614.34 C 833.57 1622.54 929.795 1625.22 1025.51 1625.47 C 1062.64 1626.28 1107.05 1624.75 1144.02 1623.58 C 1222.16 1621.78 1300.19 1616.76 1377.92 1608.52 C 1378.66 1625.75 1378.98 1651.31 1378.16 1668.53 C 1427.15 1668.2 1469.4 1663.27 1507.15 1701.3 C 1511.27 1705.46 1520.64 1717.57 1524.62 1718.43 C 1546.88 1711.22 1595.12 1725.46 1615.33 1736.24 C 1653.58 1756.64 1680.96 1792.03 1693.46 1833.38 C 1699.79 1854.31 1700.17 1875.64 1699.94 1897.31 C 1699.7 1919.61 1699.97 1942.1 1699.91 1964.41 C 1699.91 1967.85 1698.91 1973.1 1697.09 1976.22 C 1690.34 1982.37 1672.84 1986.02 1664.51 1988.38 C 1619.83 2001.07 1575.76 2007.68 1530.03 2014.43 C 1507.71 2017.73 1482 2019.79 1460.27 2023.79 C 1447.58 2024.36 1434.66 2026.42 1421.98 2027.79 C 1402.43 2029.77 1382.87 2031.54 1363.28 2033.11 C 1328.53 2035.62 1293.74 2037.64 1258.93 2039.18 C 1206.38 2041.88 1156.53 2044.18 1103.75 2042.97 C 1090.5 2044.62 1060.77 2043.63 1046.2 2043.55 C 1011.95 2043.39 977.701 2043.48 943.455 2043.82 C 915.829 2043.2 888.574 2043.23 860.88 2042.28 C 758.813 2039.39 656.968 2031.14 555.766 2017.57 C 497.47 2009.61 440.222 2001.22 383.276 1986.13 C 374.253 1983.74 363.824 1982.76 356.322 1976.77 C 351.382 1966.44 353.99 1911.73 353.497 1896.39 C 349.923 1785.23 425.782 1714.55 534.785 1715.65 C 574.678 1666.12 618.111 1666.09 677.133 1669.08 C 676.634 1651.85 677.018 1625.06 677.769 1607.79 z"/>
<path transform="translate(0,0)" fill="rgb(23,51,61)" d="M 677.769 1607.79 C 688.31 1610.45 726.239 1613.32 738.151 1614.34 C 833.57 1622.54 929.795 1625.22 1025.51 1625.47 C 1062.64 1626.28 1107.05 1624.75 1144.02 1623.58 C 1222.16 1621.78 1300.19 1616.76 1377.92 1608.52 C 1378.66 1625.75 1378.98 1651.31 1378.16 1668.53 C 1377.49 1677.87 1378.91 1716.02 1376.83 1719.24 C 1353.26 1736.68 1325.82 1748.53 1298.38 1758.41 C 1209.32 1790.49 1116.41 1799.26 1022.5 1799.23 C 930.578 1799.19 838.757 1787.5 751.977 1756.18 C 726.979 1747.16 698.53 1737.02 679.477 1718.02 C 677.103 1708.93 677.288 1680.18 677.133 1669.08 C 676.634 1651.85 677.018 1625.06 677.769 1607.79 z"/>
<path transform="translate(0,0)" fill="rgb(184,226,232)" d="M 943.455 2043.82 C 915.829 2043.2 888.574 2043.23 860.88 2042.28 C 758.813 2039.39 656.968 2031.14 555.766 2017.57 C 497.47 2009.61 440.222 2001.22 383.276 1986.13 C 374.253 1983.74 363.824 1982.76 356.322 1976.77 C 351.382 1966.44 353.99 1911.73 353.497 1896.39 C 349.923 1785.23 425.782 1714.55 534.785 1715.65 C 530.336 1725.27 525.516 1733.8 521.954 1743.79 C 499.778 1806 536.762 1870.33 595.136 1895.48 C 611.602 1902.58 627.483 1908.13 644.64 1913.25 C 763.258 1951.31 860.888 1936.54 949.983 2039.88 L 949.946 2041.92 C 947.404 2043.48 946.415 2043.37 943.455 2043.82 z"/>
<path transform="translate(0,0)" fill="rgb(126,185,195)" d="M 1378.16 1668.53 C 1427.15 1668.2 1469.4 1663.27 1507.15 1701.3 C 1511.27 1705.46 1520.64 1717.57 1524.62 1718.43 C 1546.88 1711.22 1595.12 1725.46 1615.33 1736.24 C 1653.58 1756.64 1680.96 1792.03 1693.46 1833.38 C 1699.79 1854.31 1700.17 1875.64 1699.94 1897.31 C 1699.7 1919.61 1699.97 1942.1 1699.91 1964.41 C 1699.91 1967.85 1698.91 1973.1 1697.09 1976.22 C 1690.34 1982.37 1672.84 1986.02 1664.51 1988.38 C 1619.83 2001.07 1575.76 2007.68 1530.03 2014.43 C 1507.71 2017.73 1482 2019.79 1460.27 2023.79 C 1459.62 2007.4 1463.6 1907 1450.87 1899.51 L 1452.23 1898.54 C 1451.98 1896.5 1451.72 1894.45 1451.43 1892.42 C 1444.74 1845.85 1415.44 1776.01 1389.02 1737.11 C 1386.4 1733.24 1379.95 1721.57 1376.83 1719.24 C 1378.91 1716.02 1377.49 1677.87 1378.16 1668.53 z"/>
<path transform="translate(0,0)" fill="rgb(23,51,61)" d="M 1378.16 1668.53 C 1427.15 1668.2 1469.4 1663.27 1507.15 1701.3 C 1511.27 1705.46 1520.64 1717.57 1524.62 1718.43 L 1523.49 1719.42 C 1526.94 1730.11 1534.06 1742.54 1536.19 1753.39 C 1549.64 1821.61 1512.87 1872.55 1452.23 1898.54 C 1451.98 1896.5 1451.72 1894.45 1451.43 1892.42 C 1444.74 1845.85 1415.44 1776.01 1389.02 1737.11 C 1386.4 1733.24 1379.95 1721.57 1376.83 1719.24 C 1378.91 1716.02 1377.49 1677.87 1378.16 1668.53 z"/>
<path transform="translate(0,0)" fill="rgb(184,226,232)" d="M 1450.87 1899.51 C 1463.6 1907 1459.62 2007.4 1460.27 2023.79 C 1447.58 2024.36 1434.66 2026.42 1421.98 2027.79 C 1402.43 2029.77 1382.87 2031.54 1363.28 2033.11 C 1328.53 2035.62 1293.74 2037.64 1258.93 2039.18 C 1206.38 2041.88 1156.53 2044.18 1103.75 2042.97 C 1105.78 2035.84 1119.36 2024.35 1125.05 2018.49 C 1182.75 1958.97 1264.2 1947.75 1341.16 1931.1 C 1379.61 1922.78 1414.17 1913.22 1450.87 1899.51 z"/>
<path transform="translate(0,0)" fill="rgb(254,131,7)" d="M 1835.02 97.2979 C 1832.88 86.4559 1833.67 76.5477 1836.39 65.8731 C 1857.22 -15.8966 1990.96 -14.6424 2005.08 72.6287 C 2013.69 125.867 1988.69 167.755 1933.53 178.278 C 1909.61 182.841 1876.25 170.305 1859.71 151.882 C 1859.67 150.125 1854.24 142.782 1852.81 140.553 C 1846.06 129.978 1842.58 122.308 1838.57 110.501 C 1836.7 105.116 1838.34 102.228 1835.02 97.2979 z"/>
<path transform="translate(0,0)" fill="rgb(254,131,7)" d="M 194.969 153.171 C 179.308 167.29 160.463 177.15 138.914 178.775 C 94.0306 182.159 51.7588 144.724 48.8325 100.032 C 47.1765 74.7417 52.6188 51.6907 69.7479 32.8966 C 85.3967 15.4215 106.232 6.34962 129.721 5.55268 C 183.159 3.73968 218.985 40.603 221.16 92.7901 C 217.109 98.5741 217.593 102.674 217.051 109.91 C 214.203 120.47 194.949 153.657 194.969 153.171 z"/>
<path transform="translate(0,0)" fill="rgb(253,199,13)" d="M 217.051 109.91 C 217.593 102.674 217.109 98.5741 221.16 92.7901 C 223.23 106.19 235.253 107.349 245.701 114.39 C 274.335 131.408 304.614 148.496 334.048 164.089 C 360.245 177.967 395.328 204.982 424.314 206.832 C 425.515 210.294 425.858 209.041 424.821 211.387 C 404.593 212.914 396.684 215.69 383.423 231.06 C 376.108 239.386 370.535 249.094 367.034 259.61 C 365.361 260.65 366.082 260.536 365.089 260.612 C 353.56 237.245 223.767 174.367 194.969 153.171 C 194.949 153.657 214.203 120.47 217.051 109.91 z"/>
<path transform="translate(0,0)" fill="rgb(245,203,70)" d="M 217.051 109.91 C 217.593 102.674 217.109 98.5741 221.16 92.7901 C 223.23 106.19 235.253 107.349 245.701 114.39 C 233.044 119.969 231.783 110.14 217.051 109.91 z"/>
<path transform="translate(0,0)" fill="rgb(253,199,13)" d="M 1835.02 97.2979 C 1838.34 102.228 1836.7 105.116 1838.57 110.501 C 1842.58 122.308 1846.06 129.978 1852.81 140.553 C 1854.24 142.782 1859.67 150.125 1859.71 151.882 C 1839.13 166.042 1827.17 171.916 1805.97 184.118 C 1785.13 196.225 1764.41 208.548 1743.83 221.085 C 1727.64 230.935 1710.22 240.796 1696.63 254.069 C 1692.99 257.626 1692.39 261.97 1692.14 266.81 L 1691.86 267.119 C 1691.36 266.931 1679.37 241.228 1676.25 236.16 C 1664.76 217.456 1648.14 220.133 1635.27 208.761 C 1641.93 208.429 1649.27 207.354 1655.11 204.023 C 1682 188.671 1707.25 171.334 1734.82 156.959 L 1747.42 150.014 C 1770.66 135.39 1798.73 121.312 1823.08 107.844 C 1828.84 104.647 1831.4 102.773 1835.02 97.2979 z"/>
<path transform="translate(0,0)" fill="rgb(245,203,70)" d="M 1835.02 97.2979 C 1838.34 102.228 1836.7 105.116 1838.57 110.501 C 1835.12 111.038 1832.43 111.287 1829.15 112.538 C 1824.72 116.135 1808.97 124.624 1803.32 127.84 C 1786.3 137.643 1769.19 147.266 1751.97 156.707 C 1748.57 154.303 1749.43 154.437 1747.42 150.014 C 1770.66 135.39 1798.73 121.312 1823.08 107.844 C 1828.84 104.647 1831.4 102.773 1835.02 97.2979 z"/>
</svg>